<?xml version="1.0" encoding="iso-8859-1"?>
<!-- Generator: Adobe Illustrator 21.1.0, SVG Export Plug-In . SVG Version: 6.00 Build 0)  -->
<svg version="1.1" id="Layer_1" xmlns="http://www.w3.org/2000/svg" xmlns:xlink="http://www.w3.org/1999/xlink" x="0px" y="0px"
	 viewBox="0 0 24 24" enable-background="new 0 0 24 24" xml:space="preserve">
<g>
	<path fill="#303C42" d="M20.9163818,13.7163086C20.9663086,13.4684448,21,13.2302856,21,13c0-2.2060547-1.7939453-4-4-4h-0.0582886
		C17.5927734,8.3640137,18,7.4797363,18,6.5C18,4.0185547,16.4296875,2,14.5,2C14.2236328,2,14,2.2236328,14,2.5
		C14,3.8789063,12.6542969,5,11,5C8.946167,5,7.2692871,6.7561646,7.0449219,9H7c-2.2060547,0-4,1.7939453-4,4
		c0,0.2302856,0.0336914,0.4684448,0.0836182,0.7163086C1.8345337,14.5168457,1,15.9093628,1,17.5C1,19.9814453,3.0185547,22,5.5,22
		h13c2.4814453,0,4.5-2.0185547,4.5-4.5C23,15.9093628,22.1654663,14.5168457,20.9163818,13.7163086z"/>
	<path fill="#8D6E63" d="M18.5,21h-13C3.5703125,21,2,19.4296875,2,17.5S3.5703125,14,5.5,14h4c0.2763672,0,0.5-0.2236328,0.5-0.5
		S9.7763672,13,9.5,13h-4c-0.5203247,0-1.0124512,0.1063232-1.4777222,0.2694702C4.012085,13.1784668,4,13.086731,4,13
		c0-1.6542969,1.3457031-3,3-3h2.5C9.7763672,10,10,9.7763672,10,9.5S9.7763672,9,9.5,9H8.043335
		C8.253479,7.3083496,9.4924927,6,11,6c1.9892578,0,3.6435547-1.2773438,3.9492188-2.9433594
		C16.1142578,3.3535156,17,4.7851563,17,6.5C17,7.8789063,15.8789063,9,14.5,9h-2C12.2236328,9,12,9.2236328,12,9.5
		s0.2236328,0.5,0.5,0.5H17c1.6542969,0,3,1.3457031,3,3c0,0.086731-0.012085,0.1784668-0.0222778,0.2694702
		C19.5124512,13.1063232,19.0203247,13,18.5,13h-3c-0.2763672,0-0.5,0.2236328-0.5,0.5s0.2236328,0.5,0.5,0.5h3
		c1.9296875,0,3.5,1.5703125,3.5,3.5S20.4296875,21,18.5,21z"/>
	<path opacity="0.2" fill="#FFFFFF" d="M8.043335,9h1.2451782c0.2877808-1.2502441,1.1762695-2.4231567,2.2297974-3.0413818
		C11.3473511,5.9782104,11.177002,6,11,6C9.4924927,6,8.253479,7.3083496,8.043335,9z"/>
	<path opacity="0.2" fill="#FFFFFF" d="M5.5,13c0-1.6542969,1.3457031-3,3-3H7c-1.6542969,0-3,1.3457031-3,3
		c0,0.086731,0.012085,0.1784668,0.0222778,0.2694702C4.4875488,13.1063232,4.9796753,13,5.5,13z"/>
	<path opacity="0.2" fill="#FFFFFF" d="M3.5,17.5C3.5,15.5703125,5.0703125,14,7,14H5.5C3.5703125,14,2,15.5703125,2,17.5
		S3.5703125,21,5.5,21H7C5.0703125,21,3.5,19.4296875,3.5,17.5z"/>
	<path opacity="0.1" fill="#010101" d="M15,10c1.6542969,0,3,1.3457031,3,3h0.5
		c0.5203247,0,1.0124512,0.1063232,1.4777222,0.2694702C19.987915,13.1784668,20,13.086731,20,13c0-1.6542969-1.3457031-3-3-3H15z"
		/>
	<path opacity="0.1" fill="#010101" d="M18.5,14h-2c1.9296875,0,3.5,1.5703125,3.5,3.5S18.4296875,21,16.5,21h2
		c1.9296875,0,3.5-1.5703125,3.5-3.5S20.4296875,14,18.5,14z"/>
	<path opacity="0.1" fill="#010101" d="M15,6.5C15,7.8789063,13.8789063,9,12.5,9h2C15.8789063,9,17,7.8789063,17,6.5
		c0-1.7148438-0.8857422-3.1464844-2.0507813-3.4433594c-0.0814819,0.4439697-0.2642822,0.8568115-0.5181274,1.2287598
		C14.7851563,4.8895264,15,5.6596069,15,6.5z"/>
	<linearGradient id="SVGID_1_" gradientUnits="userSpaceOnUse" x1="4.2595978" y1="9.4121561" x2="23.1326103" y2="18.2127876">
		<stop  offset="0" style="stop-color:#FFFFFF;stop-opacity:0.2"/>
		<stop  offset="1" style="stop-color:#FFFFFF;stop-opacity:0"/>
	</linearGradient>
	<path fill="url(#SVGID_1_)" d="M20.9163818,13.7163086C20.9663086,13.4684448,21,13.2302856,21,13c0-2.2060547-1.7939453-4-4-4
		h-0.0582886C17.5927734,8.3640137,18,7.4797363,18,6.5C18,4.0185547,16.4296875,2,14.5,2C14.2236328,2,14,2.2236328,14,2.5
		C14,3.8789063,12.6542969,5,11,5C8.946167,5,7.2692871,6.7561646,7.0449219,9H7c-2.2060547,0-4,1.7939453-4,4
		c0,0.2302856,0.0336914,0.4684448,0.0836182,0.7163086C1.8345337,14.5168457,1,15.9093628,1,17.5C1,19.9814453,3.0185547,22,5.5,22
		h13c2.4814453,0,4.5-2.0185547,4.5-4.5C23,15.9093628,22.1654663,14.5168457,20.9163818,13.7163086z"/>
</g>
<g>
</g>
<g>
</g>
<g>
</g>
<g>
</g>
<g>
</g>
<g>
</g>
<g>
</g>
<g>
</g>
<g>
</g>
<g>
</g>
<g>
</g>
<g>
</g>
<g>
</g>
<g>
</g>
<g>
</g>
</svg>
